<svg width="40" height="40" viewBox="0 0 40 40" fill="none" xmlns="http://www.w3.org/2000/svg">
<mask id="path-1-inside-1_542_3217" fill="white">
<path d="M0 8C0 3.58172 3.58172 0 8 0H32C36.4183 0 40 3.58172 40 8V32C40 36.4183 36.4183 40 32 40H8C3.58172 40 0 36.4183 0 32V8Z"/>
</mask>
<path d="M0 8C0 3.58172 3.58172 0 8 0H32C36.4183 0 40 3.58172 40 8V32C40 36.4183 36.4183 40 32 40H8C3.58172 40 0 36.4183 0 32V8Z" fill="white"/>
<path d="M8 0V1H32V0V-1H8V0ZM40 8H39V32H40H41V8H40ZM32 40V39H8V40V41H32V40ZM0 32H1V8H0H-1V32H0ZM8 40V39C4.13401 39 1 35.866 1 32H0H-1C-1 36.9706 3.02944 41 8 41V40ZM40 32H39C39 35.866 35.866 39 32 39V40V41C36.9706 41 41 36.9706 41 32H40ZM32 0V1C35.866 1 39 4.13401 39 8H40H41C41 3.02944 36.9706 -1 32 -1V0ZM8 0V-1C3.02944 -1 -1 3.02944 -1 8H0H1C1 4.13401 4.13401 1 8 1V0Z" fill="black" fill-opacity="0.1" mask="url(#path-1-inside-1_542_3217)"/>
<path d="M20 12.5C19.0054 13.4946 18.4467 14.8435 18.4467 16.25C18.4467 17.6565 19.0054 19.0054 20 20C20.9946 20.9946 22.3435 21.5533 23.75 21.5533C25.1565 21.5533 26.5054 20.9946 27.5 20C27.5 21.4834 27.0601 22.9334 26.236 24.1668C25.4119 25.4001 24.2406 26.3614 22.8701 26.9291C21.4997 27.4968 19.9917 27.6453 18.5368 27.3559C17.082 27.0665 15.7456 26.3522 14.6967 25.3033C13.6478 24.2544 12.9335 22.918 12.6441 21.4632C12.3547 20.0083 12.5032 18.5003 13.0709 17.1299C13.6386 15.7594 14.5999 14.5881 15.8332 13.764C17.0666 12.9399 18.5166 12.5 20 12.5Z" stroke="#0A0A0A" stroke-width="1.66667" stroke-linecap="round" stroke-linejoin="round"/>
</svg>
